<?xml version="1.0" encoding="UTF-8" standalone="no"?><!DOCTYPE svg PUBLIC "-//W3C//DTD SVG 1.1//EN" "http://www.w3.org/Graphics/SVG/1.1/DTD/svg11.dtd"><svg width="100%" height="100%" viewBox="0 0 1198 451" version="1.1" xmlns="http://www.w3.org/2000/svg" xmlns:xlink="http://www.w3.org/1999/xlink" xml:space="preserve" xmlns:serif="http://www.serif.com/" style="fill-rule:evenodd;clip-rule:evenodd;stroke-linejoin:round;stroke-miterlimit:2;"><rect id="comeetcat" x="0" y="0" width="1197.47" height="450.17" style="fill:none;"/><path d="M203.788,185.56c3.01,14.692 5.852,24.865 11.938,29.787c1.548,1.252 6.823,1.043 8.698,0.374c10.61,-3.786 14.328,-18.889 21.38,-28.643c9.55,-13.21 17.454,-19.673 31.295,-25.032c11.085,-4.292 25.296,-5.298 38.324,0.144c-14.211,-28.753 -41.491,-42.423 -65.337,-44.746c-31.574,-3.075 -53.399,6.071 -68.917,15.904c-7.93,5.025 -22.407,9.803 -30.315,8.245c-9.599,-1.892 -15.379,-8.698 -16.634,-15.03c-1.74,-8.779 4.005,-20.884 10.492,-26.44c15.796,-13.529 48.509,-24.981 79.222,-24.981c78.089,0 145.439,63.359 145.439,144.949c0,86.216 -72.422,144.949 -144.949,144.949c-77.17,0 -144.949,-62.013 -144.949,-144.949c0,-42.32 16.235,-69.501 22.982,-75.344c2.663,-2.307 6.983,-2.008 9.756,1.181c4.25,4.886 6.657,15.281 7.893,23.483c13.128,-3.595 37.412,-2.79 48.966,1.256c3.716,-8.119 10.624,-17.275 15.442,-20.347c4.257,-2.713 7.874,-3.057 10.425,1.299c3.231,5.519 4.673,13.56 8.849,33.941Zm-84.43,12.785c5.617,0 10.177,4.56 10.177,10.177c0,5.617 -4.56,10.178 -10.177,10.178c-5.617,0 -10.178,-4.561 -10.178,-10.178c0,-5.617 4.561,-10.177 10.178,-10.177Zm49.498,0c5.617,0 10.178,4.56 10.178,10.177c0,5.617 -4.561,10.178 -10.178,10.178c-5.617,0 -10.177,-4.561 -10.177,-10.178c0,-5.617 4.56,-10.177 10.177,-10.177Z" style="fill:#f8f8f8;"/><g><path d="M447.407,201.627c-13.575,0 -24.231,-3.275 -31.968,-9.825c-7.737,-6.551 -11.843,-16.139 -12.317,-28.764c-0.095,-2.563 -0.143,-6.74 -0.143,-12.531c0,-5.886 0.048,-10.158 0.143,-12.816c0.474,-12.341 4.628,-21.858 12.459,-28.55c7.832,-6.693 18.441,-10.039 31.826,-10.039c8.449,0 16.019,1.376 22.712,4.129c6.693,2.753 11.985,6.74 15.877,11.962c3.892,5.221 5.933,11.391 6.123,18.511c0,0.854 -0.308,1.566 -0.925,2.136c-0.617,0.57 -1.353,0.854 -2.207,0.854l-20.221,0c-1.329,0 -2.302,-0.261 -2.919,-0.783c-0.617,-0.522 -1.163,-1.495 -1.637,-2.919c-1.329,-4.652 -3.347,-7.903 -6.052,-9.754c-2.706,-1.851 -6.289,-2.777 -10.751,-2.777c-10.727,0 -16.281,5.981 -16.661,17.942c-0.094,2.563 -0.142,6.503 -0.142,11.819c0,5.316 0.048,9.351 0.142,12.104c0.38,11.961 5.934,17.942 16.661,17.942c4.367,0 7.95,-0.95 10.751,-2.848c2.8,-1.899 4.817,-5.127 6.052,-9.683c0.379,-1.424 0.901,-2.397 1.566,-2.919c0.664,-0.523 1.661,-0.784 2.99,-0.784l20.221,0c0.854,0 1.59,0.285 2.207,0.855c0.617,0.569 0.925,1.281 0.925,2.136c-0.19,7.12 -2.231,13.29 -6.123,18.511c-3.892,5.221 -9.184,9.209 -15.877,11.962c-6.693,2.753 -14.263,4.129 -22.712,4.129Z" style="fill:#f8f8f8;fill-rule:nonzero;"/><path d="M547.939,201.627c-13.481,0 -24.113,-3.275 -31.897,-9.825c-7.785,-6.551 -11.914,-16.186 -12.389,-28.907c-0.095,-2.658 -0.142,-6.74 -0.142,-12.246c0,-5.506 0.047,-9.635 0.142,-12.388c0.38,-12.531 4.533,-22.19 12.46,-28.978c7.927,-6.787 18.535,-10.181 31.826,-10.181c13.195,0 23.756,3.394 31.683,10.181c7.926,6.788 12.08,16.447 12.459,28.978c0.19,5.506 0.285,9.635 0.285,12.388c0,2.848 -0.095,6.93 -0.285,12.246c-0.474,12.721 -4.58,22.356 -12.317,28.907c-7.737,6.55 -18.345,9.825 -31.825,9.825Zm0,-21.359c4.936,0 8.876,-1.496 11.818,-4.486c2.943,-2.99 4.51,-7.571 4.699,-13.741c0.19,-5.506 0.285,-9.446 0.285,-11.819c0,-2.373 -0.095,-6.218 -0.285,-11.534c-0.189,-6.171 -1.756,-10.751 -4.699,-13.741c-2.942,-2.991 -6.882,-4.486 -11.818,-4.486c-5.032,0 -9.019,1.495 -11.962,4.486c-2.943,2.99 -4.509,7.57 -4.699,13.741c-0.095,2.658 -0.142,6.503 -0.142,11.534c0,5.126 0.047,9.066 0.142,11.819c0.19,6.17 1.756,10.751 4.699,13.741c2.943,2.99 6.93,4.486 11.962,4.486Z" style="fill:#f8f8f8;fill-rule:nonzero;"/><path d="M703.862,100.953c0.95,0 1.804,0.38 2.563,1.139c0.76,0.76 1.14,1.614 1.14,2.563l0,91.988c0,1.044 -0.38,1.899 -1.14,2.563c-0.759,0.665 -1.613,0.997 -2.563,0.997l-17.942,0c-1.044,0 -1.898,-0.332 -2.563,-0.997c-0.664,-0.664 -0.996,-1.519 -0.996,-2.563l0,-48.557c0,-0.57 -0.285,-0.854 -0.855,-0.854c-0.19,0 -0.38,0.142 -0.569,0.427l-13.955,25.489c-1.139,2.183 -2.801,3.275 -4.984,3.275l-7.547,0c-1.899,0 -3.56,-1.092 -4.984,-3.275l-13.812,-25.489c-0.095,-0.285 -0.285,-0.427 -0.57,-0.427c-0.57,0 -0.854,0.284 -0.854,0.854l0,48.557c0,1.139 -0.333,2.017 -0.997,2.634c-0.665,0.618 -1.567,0.926 -2.706,0.926l-17.799,0c-1.044,0 -1.923,-0.308 -2.635,-0.926c-0.712,-0.617 -1.068,-1.495 -1.068,-2.634l0,-83.871c0,-1.994 0.451,-3.726 1.353,-5.198c0.902,-1.471 1.97,-2.705 3.204,-3.702c1.234,-0.997 2.516,-1.732 3.845,-2.207c1.329,-0.475 2.421,-0.712 3.275,-0.712l7.974,0c2.468,0 4.177,1.044 5.126,3.133l23.781,42.576c0.189,0.19 0.379,0.285 0.569,0.285c0.285,0 0.522,-0.095 0.712,-0.285l23.923,-42.576c0.949,-2.089 2.658,-3.133 5.126,-3.133l15.948,0Z" style="fill:#f8f8f8;fill-rule:nonzero;"/><path d="M727.073,196.358l0,-83.301c0,-3.608 1.234,-6.574 3.702,-8.9c2.468,-2.326 5.364,-3.489 8.686,-3.489l58.098,0c0.949,0 1.804,0.38 2.563,1.139c0.76,0.76 1.139,1.614 1.139,2.563l0,14.098c0,1.044 -0.379,1.851 -1.139,2.42c-0.664,0.665 -1.519,0.997 -2.563,0.997l-52.687,0c2.279,0 4.154,0.807 5.625,2.421c1.472,1.614 2.207,3.37 2.207,5.269l0,5.98c0,1.044 0.38,2.041 1.139,2.991c0.76,0.949 1.852,1.423 3.276,1.423l30.899,0c2.469,0 3.703,1.235 3.703,3.703l0,12.815c0,2.469 -1.234,3.703 -3.703,3.703l-43.146,0c2.184,0 4.035,0.759 5.554,2.278c1.519,1.519 2.278,3.228 2.278,5.126l0,6.693c0,1.044 0.404,2.041 1.211,2.99c0.807,0.95 1.874,1.424 3.204,1.424l41.579,0c1.044,0 1.923,0.356 2.635,1.068c0.711,0.712 1.067,1.59 1.067,2.635l0,13.954c0,1.045 -0.379,1.899 -1.139,2.563c-0.759,0.665 -1.614,0.997 -2.563,0.997l-68.065,0c-1.044,0 -1.899,-0.332 -2.563,-0.997c-0.665,-0.664 -0.997,-1.518 -0.997,-2.563Z" style="fill:#f8f8f8;fill-rule:nonzero;"/><path d="M818.491,196.358l0,-83.301c0,-3.608 1.234,-6.574 3.703,-8.9c2.468,-2.326 5.363,-3.489 8.686,-3.489l58.097,0c0.95,0 1.804,0.38 2.563,1.139c0.76,0.76 1.14,1.614 1.14,2.563l0,14.098c0,1.044 -0.38,1.851 -1.14,2.42c-0.664,0.665 -1.518,0.997 -2.563,0.997l-52.686,0c2.278,0 4.153,0.807 5.624,2.421c1.472,1.614 2.208,3.37 2.208,5.269l0,5.98c0,1.044 0.379,2.041 1.139,2.991c0.759,0.949 1.851,1.423 3.275,1.423l30.9,0c2.468,0 3.702,1.235 3.702,3.703l0,12.815c0,2.469 -1.234,3.703 -3.702,3.703l-43.146,0c2.183,0 4.034,0.759 5.553,2.278c1.519,1.519 2.279,3.228 2.279,5.126l0,6.693c0,1.044 0.403,2.041 1.21,2.99c0.807,0.95 1.875,1.424 3.204,1.424l41.58,0c1.044,0 1.922,0.356 2.634,1.068c0.712,0.712 1.068,1.59 1.068,2.635l0,13.954c0,1.045 -0.38,1.899 -1.139,2.563c-0.76,0.665 -1.614,0.997 -2.563,0.997l-68.066,0c-1.044,0 -1.898,-0.332 -2.563,-0.997c-0.664,-0.664 -0.997,-1.518 -0.997,-2.563Z" style="fill:#f8f8f8;fill-rule:nonzero;"/><path d="M983.813,100.526c2.468,0 3.702,1.234 3.702,3.702l0,15.806c0,1.139 -0.332,1.994 -0.996,2.563c-0.665,0.665 -1.567,0.997 -2.706,0.997l-32.893,0c2.088,0 3.939,0.759 5.553,2.278c1.614,1.519 2.421,3.228 2.421,5.127l0,65.217c0,1.139 -0.332,2.017 -0.997,2.634c-0.664,0.617 -1.566,0.926 -2.705,0.926l-19.651,0c-0.949,0 -1.804,-0.332 -2.563,-0.997c-0.76,-0.664 -1.139,-1.519 -1.139,-2.563l0,-68.208c0,-1.329 -0.451,-2.397 -1.353,-3.204c-0.902,-0.807 -1.875,-1.21 -2.919,-1.21l-20.648,0c-1.139,0 -2.041,-0.332 -2.705,-0.997c-0.665,-0.569 -0.997,-1.424 -0.997,-2.563l0,-7.262c0,-3.702 1.282,-6.669 3.845,-8.9c2.563,-2.231 5.411,-3.346 8.543,-3.346l68.208,0Z" style="fill:#f8f8f8;fill-rule:nonzero;"/></g><g><path d="M447.407,338.773c-13.575,0 -24.231,-3.275 -31.968,-9.826c-7.737,-6.55 -11.843,-16.138 -12.317,-28.764c-0.095,-2.563 -0.143,-6.74 -0.143,-12.531c0,-5.885 0.048,-10.157 0.143,-12.815c0.474,-12.341 4.628,-21.858 12.459,-28.551c7.832,-6.692 18.441,-10.039 31.826,-10.039c8.449,0 16.019,1.377 22.712,4.13c6.693,2.753 11.985,6.74 15.877,11.961c3.892,5.221 5.933,11.392 6.123,18.512c0,0.854 -0.308,1.566 -0.925,2.136c-0.617,0.569 -1.353,0.854 -2.207,0.854l-20.221,0c-1.329,0 -2.302,-0.261 -2.919,-0.783c-0.617,-0.522 -1.163,-1.495 -1.637,-2.919c-1.329,-4.652 -3.347,-7.903 -6.052,-9.754c-2.706,-1.852 -6.289,-2.777 -10.751,-2.777c-10.727,0 -16.281,5.98 -16.661,17.942c-0.094,2.563 -0.142,6.503 -0.142,11.819c0,5.316 0.048,9.35 0.142,12.103c0.38,11.962 5.934,17.942 16.661,17.942c4.367,0 7.95,-0.949 10.751,-2.848c2.8,-1.898 4.817,-5.126 6.052,-9.683c0.379,-1.424 0.901,-2.397 1.566,-2.919c0.664,-0.522 1.661,-0.783 2.99,-0.783l20.221,0c0.854,0 1.59,0.285 2.207,0.854c0.617,0.57 0.925,1.282 0.925,2.136c-0.19,7.12 -2.231,13.291 -6.123,18.512c-3.892,5.221 -9.184,9.208 -15.877,11.961c-6.693,2.753 -14.263,4.13 -22.712,4.13Z" style="fill:#f8f8f8;fill-rule:nonzero;"/><path d="M498.954,336.494c-0.569,-0.759 -0.854,-1.471 -0.854,-2.136c0,-0.664 0.047,-1.091 0.142,-1.281l33.036,-90.849c1.044,-2.753 2.943,-4.129 5.696,-4.129l22.071,0c2.753,0 4.652,1.376 5.696,4.129l33.036,90.849c0.095,0.19 0.143,0.617 0.143,1.281c0,0.76 -0.309,1.448 -0.926,2.065c-0.617,0.617 -1.305,0.926 -2.065,0.926l-18.369,0c-2.373,0 -3.987,-1.045 -4.841,-3.133l-7.405,-20.078c-3.417,1.329 -6.882,2.421 -10.395,3.275c-3.512,0.855 -6.906,1.495 -10.181,1.923c-3.275,0.427 -6.337,0.712 -9.185,0.854c-2.848,0.142 -5.316,0.214 -7.404,0.214l-3.418,0c-0.949,0 -1.661,-0.048 -2.136,-0.143c1.804,0.19 3.252,1.116 4.343,2.777c1.092,1.661 1.211,3.584 0.356,5.767l-1.993,5.411c-0.855,2.088 -2.468,3.133 -4.842,3.133l-18.369,0c-0.664,0 -1.376,-0.285 -2.136,-0.855Zm36.169,-36.453c2.658,-0.19 5.411,-0.522 8.259,-0.997c2.468,-0.38 5.055,-0.925 7.76,-1.637c2.706,-0.712 5.293,-1.733 7.761,-3.062l-10.964,-31.327l-12.816,37.023Z" style="fill:#f8f8f8;fill-rule:nonzero;"/><path d="M683.357,237.671c2.468,0 3.703,1.234 3.703,3.703l0,15.806c0,1.139 -0.333,1.993 -0.997,2.563c-0.665,0.664 -1.567,0.997 -2.706,0.997l-32.893,0c2.088,0 3.939,0.759 5.553,2.278c1.614,1.519 2.421,3.228 2.421,5.126l0,65.218c0,1.139 -0.332,2.017 -0.997,2.634c-0.664,0.617 -1.566,0.926 -2.705,0.926l-19.651,0c-0.949,0 -1.804,-0.333 -2.563,-0.997c-0.76,-0.665 -1.139,-1.519 -1.139,-2.563l0,-68.208c0,-1.329 -0.451,-2.397 -1.353,-3.204c-0.902,-0.807 -1.875,-1.21 -2.919,-1.21l-20.648,0c-1.139,0 -2.041,-0.333 -2.705,-0.997c-0.665,-0.57 -0.997,-1.424 -0.997,-2.563l0,-7.263c0,-3.702 1.282,-6.668 3.845,-8.899c2.563,-2.231 5.411,-3.347 8.544,-3.347l68.207,0Z" style="fill:#f8f8f8;fill-rule:nonzero;"/></g><path d="M224.424,392.621l252.944,0c7.727,0 14,6.273 14,14c0,7.726 -6.273,14 -14,14l-252.944,0c-110.675,0 -200.53,-89.855 -200.53,-200.53c0,-110.676 89.855,-200.53 200.53,-200.53l281.745,0c7.727,0 14,6.273 14,14c0,7.727 -6.273,14 -14,14l-281.745,0c-95.222,0 -172.53,77.308 -172.53,172.53c0,95.222 77.308,172.53 172.53,172.53Zm606.354,28l47.584,0c7.726,0 14,-6.274 14,-14c0,-7.727 -6.274,-14 -14,-14l-47.584,0c-7.727,0 -14,6.273 -14,14c0,7.726 6.273,14 14,14Zm-261.633,0l159.166,0c7.727,0 14,-6.274 14,-14c0,-7.727 -6.273,-14 -14,-14l-159.166,0c-7.727,0 -14,6.273 -14,14c0,7.726 6.273,14 14,14Zm212.069,-119.111l193.272,0c7.727,0 14,-6.273 14,-14c0,-7.727 -6.273,-14 -14,-14l-193.272,0c-7.727,0 -14,6.273 -14,14c0,7.727 6.273,14 14,14Zm-186.39,-253.949l92.93,0c7.727,0 14,-6.273 14,-14c0,-7.727 -6.273,-14 -14,-14l-92.93,0c-7.727,0 -14,6.273 -14,14c0,7.727 6.273,14 14,14Zm185.219,0l379.529,0c7.726,0 14,-6.273 14,-14c0,-7.727 -6.274,-14 -14,-14l-379.529,0c-7.727,0 -14,6.273 -14,14c0,7.727 6.273,14 14,14Z" style="fill:#f8f8f8;"/></svg>