<svg width="56" height="55" viewBox="0 0 56 55" fill="none" xmlns="http://www.w3.org/2000/svg">
<path d="M28.0031 2.36349e-06C12.5313 -0.00630932 0 12.6297 0 28.2258C0 40.5589 7.83912 51.0426 18.7563 54.8927C20.2266 55.2651 20.0013 54.211 20.0013 53.4915V48.5999C11.5116 49.6035 11.1675 43.9356 10.5981 42.9889C9.44699 41.007 6.72551 40.5021 7.53882 39.5553C9.47201 38.5518 11.4427 39.8078 13.7263 43.2098C15.3779 45.6776 18.5999 45.2611 20.2328 44.8508C20.5894 43.3676 21.3527 42.0421 22.4038 41.0133C13.6074 39.4228 9.94124 34.0073 9.94124 27.5694C9.94124 24.4451 10.961 21.5733 12.963 19.2569C11.6867 15.4384 13.0819 12.1689 13.2696 11.6829C16.9045 11.3547 20.6833 14.3086 20.9773 14.5421C23.0419 13.9804 25.4005 13.6837 28.0407 13.6837C30.6933 13.6837 33.0582 13.993 35.1416 14.5611C35.8485 14.0182 39.352 11.481 42.7304 11.7902C42.9119 12.2762 44.2757 15.4699 43.0745 19.238C45.1016 21.5607 46.1338 24.4578 46.1338 27.5884C46.1338 34.0389 42.4426 39.4606 33.6213 41.0259C34.3768 41.7756 34.9768 42.6696 35.386 43.6557C35.7953 44.6419 36.0057 45.7005 36.0049 46.7696V53.8702C36.055 54.4383 36.0049 55 36.9434 55C48.0232 51.2319 56 40.6725 56 28.2322C56 12.6297 43.4624 2.36349e-06 28.0031 2.36349e-06Z" fill="url(#paint0_linear)"/>
<defs>
<linearGradient id="paint0_linear" x1="28" y1="0" x2="28" y2="55" gradientUnits="userSpaceOnUse">
<stop stop-color="#FF5A6B"/>
<stop offset="1" stop-color="#F73096"/>
</linearGradient>
</defs>
</svg>
