<svg id="Logo" xmlns="http://www.w3.org/2000/svg" width="289.898" height="289.898" viewBox="0 0 289.898 289.898">
  <g id="Componente_1_1" data-name="Componente 1 – 1">
    <path id="Trazado_2" data-name="Trazado 2" d="M203.788,185.56c3.01,14.692,5.852,24.865,11.938,29.787,1.548,1.252,6.823,1.043,8.7.374,10.61-3.786,14.328-18.889,21.38-28.643,9.55-13.21,17.454-19.673,31.295-25.032,11.085-4.292,25.3-5.3,38.324.144-14.211-28.753-41.491-42.423-65.337-44.746-31.574-3.075-53.4,6.071-68.917,15.9-7.93,5.025-22.407,9.8-30.315,8.245-9.6-1.892-15.379-8.7-16.634-15.03-1.74-8.779,4.005-20.884,10.492-26.44,15.8-13.529,48.509-24.981,79.222-24.981,78.089,0,145.439,63.359,145.439,144.949,0,86.216-72.422,144.949-144.949,144.949-77.17,0-144.949-62.013-144.949-144.949,0-42.32,16.235-69.5,22.982-75.344,2.663-2.307,6.983-2.008,9.756,1.181,4.25,4.886,6.657,15.281,7.893,23.483,13.128-3.6,37.412-2.79,48.966,1.256,3.716-8.119,10.624-17.275,15.442-20.347,4.257-2.713,7.874-3.057,10.425,1.3,3.231,5.519,4.673,13.56,8.849,33.941Zm-84.43,12.785a10.177,10.177,0,1,1-10.178,10.177,10.182,10.182,0,0,1,10.178-10.177Zm49.5,0a10.177,10.177,0,1,1-10.177,10.177A10.182,10.182,0,0,1,168.856,198.345Z" transform="translate(-79.475 -75.142)" fill="#fff" fill-rule="evenodd"/>
  </g>
  <circle id="Elipse_1" data-name="Elipse 1" cx="13" cy="13" r="13" transform="translate(28.525 119)" fill="#fff"/>
  <circle id="Elipse_2" data-name="Elipse 2" cx="13.5" cy="13.5" r="13.5" transform="translate(77.525 119)" fill="#fff"/>
  <circle id="Elipse_3" data-name="Elipse 3" cx="11.5" cy="11.5" r="11.5" transform="translate(52.525 154)"/>
  <path id="cerrar" d="M10,7.519l4.652-4.652a1.315,1.315,0,0,0,0-1.86l-.62-.62a1.315,1.315,0,0,0-1.861,0L7.519,5.038,2.867.385a1.315,1.315,0,0,0-1.86,0l-.621.62a1.315,1.315,0,0,0,0,1.861L5.039,7.519.387,12.17a1.315,1.315,0,0,0,0,1.861l.62.62a1.315,1.315,0,0,0,1.86,0L7.519,10l4.652,4.652a1.315,1.315,0,0,0,1.861,0l.62-.62a1.315,1.315,0,0,0,0-1.861Zm0,0" transform="translate(32.525 125.662)"/>
  <path id="cerrar-2" data-name="cerrar" d="M10,7.519l4.652-4.652a1.315,1.315,0,0,0,0-1.86l-.62-.62a1.315,1.315,0,0,0-1.861,0L7.519,5.038,2.867.385a1.315,1.315,0,0,0-1.86,0l-.621.62a1.315,1.315,0,0,0,0,1.861L5.039,7.519.387,12.17a1.315,1.315,0,0,0,0,1.861l.62.62a1.315,1.315,0,0,0,1.86,0L7.519,10l4.652,4.652a1.315,1.315,0,0,0,1.861,0l.62-.62a1.315,1.315,0,0,0,0-1.861Zm0,0" transform="translate(81.525 125.662)"/>
</svg>
